PathFileType	4	(X/Y/Z)	15_coords_data.trc
DataRate	CameraRate	NumFrames	NumMarkers	Units	OrigDataRate	OrigDataStartFrame	OrigNumFrames
30.0	30.0	4	21	m	30.0	1	68
Frame#	Time	THUMB_TIP	THUMB_IP	THUMB_MCP	THUMB_CMC	INDEX_TIP	INDEX_DIP	INDEX_PIP	INDEX_MCP	MIDDLE_TIP	MIDDLE_DIP	MIDDLE_PIP	MIDDLE_MCP	RING_TIP	RING_DIP	RING_PIP	RING_MCP	PINKY_TIP	PINKY_DIP	PINKY_PIP	PINKY_MCP	WRIST
X1	Y1	Z1	X2	Y2	Z2	X3	Y3	Z3	X4	Y4	Z4	X5	Y5	Z5	X6	Y6	Z6	X7	Y7	Z7	X8	Y8	Z8	X9	Y9	Z9	X10	Y10	Z10	X11	Y11	Z11	X12	Y12	Z12	X13	Y13	Z13	X14	Y14	Z14	X15	Y15	Z15	X16	Y16	Z16	X17	Y17	Z17	X18	Y18	Z18	X19	Y19	Z19	X20	Y20	Z20	X21	Y21	Z21
0	-2.749317978547796e-18	0.5309336019920948	-0.009832587263981396	-0.14926853568586357	0.5147261890011265	-0.012125936749858068	-0.13314215009343083	0.48784761658885367	-0.01864395047480838	-0.11886357025650182	0.4767053261049624	-0.026811438128518827	-0.07644857870635441	0.5638928198822217	0.008933508322401473	-0.14629629906686742	0.5498282600556904	0.020101152689722346	-0.14395709489215977	0.5274222359432861	0.027882445216399487	-0.1356245440769154	0.4893071439078658	0.023841087383128623	-0.11706266701679827	0.5759583995654242	0.003693956681624422	-0.131056899983872	0.563236870648021	0.015699196628292555	-0.12636255063315294	0.5401341144313568	0.029750845467591547	-0.11548949356117827	0.5003149777323184	0.0343159646715967	-0.0957475595070762	0.5778521145084264	-0.0015438617817170597	-0.11161752644048087	0.5667354974375727	0.010483449987176985	-0.10408329811145942	0.5493247920800597	0.024772355245500033	-0.09345905675160066	0.513455974767102	0.03332834203588353	-0.07687762531120743	0.5811700411418129	-0.007360647346702387	-0.08725338480664929	0.5693354825428736	0.0027421026634848467	-0.08012052668385355	0.5530624270179189	0.013147086830430643	-0.07189033911810833	0.5204029626138298	0.021976848964145534	-0.05938921370876804	0.462283081001861	-0.023011742144276925	-0.05198982011943101
1	0.03333333333333339	0.5318574353038286	-0.01064037516780525	-0.149011263874507	0.5154852804869179	-0.012633006260506674	-0.13301182738507067	0.48867671502794485	-0.01929463754578664	-0.1186680661401622	0.4768772861176219	-0.026917780926293267	-0.07632953566979189	0.5635947324055397	0.008683674958262944	-0.14693351270046182	0.5492617196964623	0.019458228596527682	-0.14438915805191493	0.5269603610607746	0.027792740097571933	-0.13631480643451557	0.489099146330944	0.02369698405293219	-0.11725203392880543	0.576083858829871	0.0037541039522910324	-0.13160338314693454	0.5631765297289268	0.015330392338787524	-0.12636979903348208	0.540029891858851	0.029560005433223124	-0.11582651602987071	0.5003150651625716	0.03420399862610213	-0.09589378443811447	0.5779837998672324	-0.0016327983184610817	-0.1118409302675138	0.5668183467745375	0.010439279369906296	-0.10445191155588132	0.5493465862960359	0.024731628612470247	-0.0939330562041591	0.5135719108502147	0.033135940243716355	-0.07707301537529213	0.5813125044121862	-0.006897928735541625	-0.08700666551308	0.5694936586617437	0.0032268699562222336	-0.07987901957781479	0.553147015462256	0.013488764241252338	-0.07161507374113937	0.5203144586533315	0.022087562357135937	-0.05940985619489991	0.4622830810018608	-0.023011742144276925	-0.051989820119430985
2	0.06666666666666676	0.5326273002335884	-0.011303926939801867	-0.14873906073803678	0.5161081656450264	-0.013034414190979393	-0.13286066011585557	0.489337479212379	-0.01979885583960439	-0.11849428697900513	0.47701346280277523	-0.02700772141281238	-0.07623271014279093	0.5633473649255254	0.008467296824724246	-0.1474164092734463	0.5488230670017937	0.018943208880137896	-0.14471455131457375	0.5266130119138749	0.02770174215798138	-0.13683982079140541	0.488947261213003	0.02357709425626442	-0.11739979512715698	0.5761568494434494	0.0037942292497723518	-0.1320245161214412	0.5631263883843901	0.015042585833545563	-0.1263958787416991	0.5399553172896818	0.029406979355363516	-0.1160917430149955	0.5003233587891321	0.03411023849036976	-0.09600853759554873	0.5780819118923597	-0.0017351374340068837	-0.11202555960386548	0.5668811091068955	0.010369413853855591	-0.1047439488561911	0.5493703924897063	0.024668753824108824	-0.09429963657784485	0.513675712763201	0.03297389941721707	-0.0772223057003486	0.5814131969138984	-0.006590098486446205	-0.08683414779565449	0.5696124695840242	0.0035557538642451147	-0.07970641922591154	0.5532175360830968	0.013715672731657413	-0.07141219092499257	0.5202623845019502	0.022151857453030832	-0.0594258560969258	0.4622830810018609	-0.023011742144276925	-0.051989820119430985
3	0.10000000000000014	0.5332578954505693	-0.011831347436086492	-0.14846711454218092	0.5166096271343718	-0.01333963798456339	-0.13270132177133473	0.4898491964331415	-0.02017171080014779	-0.11834785077205329	0.47711662356418827	-0.02708127907554958	-0.0761574554861075	0.5631574890897002	0.008279683080228972	-0.14776859982606994	0.5485062201699378	0.01854631724560374	-0.14495141293926836	0.5263696380458162	0.02761395539835987	-0.13722098583640394	0.48884664794372046	0.023481922303182134	-0.11750836017926772	0.5761967532633232	0.0038118479911978254	-0.13233881936818268	0.5630884082288324	0.014826025546929134	-0.12643465276928284	0.5399084186363234	0.029289032859246	-0.11628975001099806	0.5003389857412743	0.03403428141195952	-0.09609345041089379	0.5781511091598004	-0.0018487957064430294	-0.11217261179620719	0.5669271634955133	0.010278090087223135	-0.10496416642480344	0.549396770554243	0.02458762702429651	-0.0945669333808059	0.5137676790976297	0.03284130759796	-0.07732844641227452	0.5814822291409754	-0.00641772608399116	-0.08672647341692175	0.569701647536008	0.003748079513953506	-0.07959385162732002	0.5532793016696059	0.013840951070206997	-0.07127204178851479	0.5202433423340791	0.022174415428354743	-0.0594372535110296	0.462283081001861	-0.023011742144276925	-0.05198982011943096
